<mxfile host="app.diagrams.net" modified="2022-10-09T10:04:09.361Z" agent="5.0 (Windows NT 10.0; Win64; x64) AppleWebKit/537.36 (KHTML, like Gecko) Chrome/106.0.0.0 Safari/537.36" etag="ycKGFOTZ6nY0ke6mOEr-" version="20.4.0" type="github">
  <diagram id="R2lEEEUBdFMjLlhIrx00" name="Page-1">
    <mxGraphModel dx="1422" dy="794" grid="0" gridSize="10" guides="1" tooltips="1" connect="1" arrows="1" fold="1" page="0" pageScale="1" pageWidth="850" pageHeight="1100" math="0" shadow="0" extFonts="Permanent Marker^https://fonts.googleapis.com/css?family=Permanent+Marker">
      <root>
        <mxCell id="0" />
        <mxCell id="1" parent="0" />
        <mxCell id="C-vyLk0tnHw3VtMMgP7b-2" value="Member_M" style="shape=table;startSize=30;container=1;collapsible=1;childLayout=tableLayout;fixedRows=1;rowLines=0;fontStyle=1;align=center;resizeLast=1;" parent="1" vertex="1">
          <mxGeometry x="450" y="120" width="250" height="210" as="geometry" />
        </mxCell>
        <mxCell id="C-vyLk0tnHw3VtMMgP7b-3" value="" style="shape=partialRectangle;collapsible=0;dropTarget=0;pointerEvents=0;fillColor=none;points=[[0,0.5],[1,0.5]];portConstraint=eastwest;top=0;left=0;right=0;bottom=1;" parent="C-vyLk0tnHw3VtMMgP7b-2" vertex="1">
          <mxGeometry y="30" width="250" height="30" as="geometry" />
        </mxCell>
        <mxCell id="C-vyLk0tnHw3VtMMgP7b-4" value="PK" style="shape=partialRectangle;overflow=hidden;connectable=0;fillColor=none;top=0;left=0;bottom=0;right=0;fontStyle=1;" parent="C-vyLk0tnHw3VtMMgP7b-3" vertex="1">
          <mxGeometry width="30.000000000000114" height="30" as="geometry">
            <mxRectangle width="30.000000000000114" height="30" as="alternateBounds" />
          </mxGeometry>
        </mxCell>
        <mxCell id="C-vyLk0tnHw3VtMMgP7b-5" value="Member_No int NOT NULL " style="shape=partialRectangle;overflow=hidden;connectable=0;fillColor=none;top=0;left=0;bottom=0;right=0;align=left;spacingLeft=6;fontStyle=5;" parent="C-vyLk0tnHw3VtMMgP7b-3" vertex="1">
          <mxGeometry x="30.000000000000114" width="219.9999999999999" height="30" as="geometry">
            <mxRectangle width="219.9999999999999" height="30" as="alternateBounds" />
          </mxGeometry>
        </mxCell>
        <mxCell id="C-vyLk0tnHw3VtMMgP7b-6" value="" style="shape=partialRectangle;collapsible=0;dropTarget=0;pointerEvents=0;fillColor=none;points=[[0,0.5],[1,0.5]];portConstraint=eastwest;top=0;left=0;right=0;bottom=0;" parent="C-vyLk0tnHw3VtMMgP7b-2" vertex="1">
          <mxGeometry y="60" width="250" height="30" as="geometry" />
        </mxCell>
        <mxCell id="C-vyLk0tnHw3VtMMgP7b-7" value="" style="shape=partialRectangle;overflow=hidden;connectable=0;fillColor=none;top=0;left=0;bottom=0;right=0;" parent="C-vyLk0tnHw3VtMMgP7b-6" vertex="1">
          <mxGeometry width="30.000000000000114" height="30" as="geometry">
            <mxRectangle width="30.000000000000114" height="30" as="alternateBounds" />
          </mxGeometry>
        </mxCell>
        <mxCell id="C-vyLk0tnHw3VtMMgP7b-8" value="Name varchar NOT NULL" style="shape=partialRectangle;overflow=hidden;connectable=0;fillColor=none;top=0;left=0;bottom=0;right=0;align=left;spacingLeft=6;" parent="C-vyLk0tnHw3VtMMgP7b-6" vertex="1">
          <mxGeometry x="30.000000000000114" width="219.9999999999999" height="30" as="geometry">
            <mxRectangle width="219.9999999999999" height="30" as="alternateBounds" />
          </mxGeometry>
        </mxCell>
        <mxCell id="C-vyLk0tnHw3VtMMgP7b-9" value="" style="shape=partialRectangle;collapsible=0;dropTarget=0;pointerEvents=0;fillColor=none;points=[[0,0.5],[1,0.5]];portConstraint=eastwest;top=0;left=0;right=0;bottom=0;" parent="C-vyLk0tnHw3VtMMgP7b-2" vertex="1">
          <mxGeometry y="90" width="250" height="30" as="geometry" />
        </mxCell>
        <mxCell id="C-vyLk0tnHw3VtMMgP7b-10" value="" style="shape=partialRectangle;overflow=hidden;connectable=0;fillColor=none;top=0;left=0;bottom=0;right=0;" parent="C-vyLk0tnHw3VtMMgP7b-9" vertex="1">
          <mxGeometry width="30.000000000000114" height="30" as="geometry">
            <mxRectangle width="30.000000000000114" height="30" as="alternateBounds" />
          </mxGeometry>
        </mxCell>
        <mxCell id="C-vyLk0tnHw3VtMMgP7b-11" value="Email varchar NOT NULL" style="shape=partialRectangle;overflow=hidden;connectable=0;fillColor=none;top=0;left=0;bottom=0;right=0;align=left;spacingLeft=6;" parent="C-vyLk0tnHw3VtMMgP7b-9" vertex="1">
          <mxGeometry x="30.000000000000114" width="219.9999999999999" height="30" as="geometry">
            <mxRectangle width="219.9999999999999" height="30" as="alternateBounds" />
          </mxGeometry>
        </mxCell>
        <mxCell id="f4y6yE5yViQtRNGcOmsm-1" value="Birth_Day date NOT NULL" style="shape=partialRectangle;overflow=hidden;connectable=0;fillColor=none;top=0;left=0;bottom=0;right=0;align=left;spacingLeft=6;" parent="1" vertex="1">
          <mxGeometry x="480" y="240" width="220" height="30" as="geometry">
            <mxRectangle width="220" height="30" as="alternateBounds" />
          </mxGeometry>
        </mxCell>
        <mxCell id="f4y6yE5yViQtRNGcOmsm-2" value="Mod_Ts timestamp NOT NULL" style="shape=partialRectangle;overflow=hidden;connectable=0;fillColor=none;top=0;left=0;bottom=0;right=0;align=left;spacingLeft=6;" parent="1" vertex="1">
          <mxGeometry x="480" y="270" width="220" height="30" as="geometry">
            <mxRectangle width="220" height="30" as="alternateBounds" />
          </mxGeometry>
        </mxCell>
        <mxCell id="f4y6yE5yViQtRNGcOmsm-3" value="" style="endArrow=none;html=1;rounded=0;" parent="1" edge="1">
          <mxGeometry width="50" height="50" relative="1" as="geometry">
            <mxPoint x="480" y="330" as="sourcePoint" />
            <mxPoint x="480" y="240" as="targetPoint" />
          </mxGeometry>
        </mxCell>
        <mxCell id="8PdvgUfNCieYga221iiQ-2" value="" style="edgeStyle=orthogonalEdgeStyle;rounded=0;orthogonalLoop=1;jettySize=auto;html=1;" edge="1" parent="1" source="f4y6yE5yViQtRNGcOmsm-4" target="oL5exVUV7gf3ijn7sl5R-34">
          <mxGeometry relative="1" as="geometry" />
        </mxCell>
        <mxCell id="f4y6yE5yViQtRNGcOmsm-4" value="Member_Dim" style="shape=table;startSize=30;container=1;collapsible=1;childLayout=tableLayout;fixedRows=1;rowLines=0;fontStyle=1;align=center;resizeLast=1;" parent="1" vertex="1">
          <mxGeometry x="760" y="610" width="250" height="180" as="geometry" />
        </mxCell>
        <mxCell id="f4y6yE5yViQtRNGcOmsm-5" value="" style="shape=partialRectangle;collapsible=0;dropTarget=0;pointerEvents=0;fillColor=none;points=[[0,0.5],[1,0.5]];portConstraint=eastwest;top=0;left=0;right=0;bottom=1;" parent="f4y6yE5yViQtRNGcOmsm-4" vertex="1">
          <mxGeometry y="30" width="250" height="30" as="geometry" />
        </mxCell>
        <mxCell id="f4y6yE5yViQtRNGcOmsm-6" value="PK" style="shape=partialRectangle;overflow=hidden;connectable=0;fillColor=none;top=0;left=0;bottom=0;right=0;fontStyle=1;" parent="f4y6yE5yViQtRNGcOmsm-5" vertex="1">
          <mxGeometry width="30.000000000000114" height="30" as="geometry">
            <mxRectangle width="30.000000000000114" height="30" as="alternateBounds" />
          </mxGeometry>
        </mxCell>
        <mxCell id="f4y6yE5yViQtRNGcOmsm-7" value="Member_No int NOT NULL" style="shape=partialRectangle;overflow=hidden;connectable=0;fillColor=none;top=0;left=0;bottom=0;right=0;align=left;spacingLeft=6;fontStyle=5;spacing=2;" parent="f4y6yE5yViQtRNGcOmsm-5" vertex="1">
          <mxGeometry x="30.000000000000114" width="219.9999999999999" height="30" as="geometry">
            <mxRectangle width="219.9999999999999" height="30" as="alternateBounds" />
          </mxGeometry>
        </mxCell>
        <mxCell id="f4y6yE5yViQtRNGcOmsm-8" value="" style="shape=partialRectangle;collapsible=0;dropTarget=0;pointerEvents=0;fillColor=none;points=[[0,0.5],[1,0.5]];portConstraint=eastwest;top=0;left=0;right=0;bottom=0;" parent="f4y6yE5yViQtRNGcOmsm-4" vertex="1">
          <mxGeometry y="60" width="250" height="30" as="geometry" />
        </mxCell>
        <mxCell id="f4y6yE5yViQtRNGcOmsm-9" value="" style="shape=partialRectangle;overflow=hidden;connectable=0;fillColor=none;top=0;left=0;bottom=0;right=0;" parent="f4y6yE5yViQtRNGcOmsm-8" vertex="1">
          <mxGeometry width="30.000000000000114" height="30" as="geometry">
            <mxRectangle width="30.000000000000114" height="30" as="alternateBounds" />
          </mxGeometry>
        </mxCell>
        <mxCell id="f4y6yE5yViQtRNGcOmsm-10" value="Name varchar NOT NULL" style="shape=partialRectangle;overflow=hidden;connectable=0;fillColor=none;top=0;left=0;bottom=0;right=0;align=left;spacingLeft=6;" parent="f4y6yE5yViQtRNGcOmsm-8" vertex="1">
          <mxGeometry x="30.000000000000114" width="219.9999999999999" height="30" as="geometry">
            <mxRectangle width="219.9999999999999" height="30" as="alternateBounds" />
          </mxGeometry>
        </mxCell>
        <mxCell id="f4y6yE5yViQtRNGcOmsm-17" value="" style="endArrow=none;html=1;rounded=0;" parent="1" edge="1">
          <mxGeometry width="50" height="50" relative="1" as="geometry">
            <mxPoint x="790" y="790" as="sourcePoint" />
            <mxPoint x="790" y="700" as="targetPoint" />
          </mxGeometry>
        </mxCell>
        <mxCell id="f4y6yE5yViQtRNGcOmsm-18" value="Load_Ts timestamp NOT NULL" style="shape=partialRectangle;overflow=hidden;connectable=0;fillColor=none;top=0;left=0;bottom=0;right=0;align=left;spacingLeft=6;" parent="1" vertex="1">
          <mxGeometry x="790" y="760" width="220" height="30" as="geometry">
            <mxRectangle width="220" height="30" as="alternateBounds" />
          </mxGeometry>
        </mxCell>
        <mxCell id="oL5exVUV7gf3ijn7sl5R-1" value="Email varchar NOT NULL" style="shape=partialRectangle;overflow=hidden;connectable=0;fillColor=none;top=0;left=0;bottom=0;right=0;align=left;spacingLeft=6;" parent="1" vertex="1">
          <mxGeometry x="790.0000000000001" y="700" width="219.9999999999999" height="30" as="geometry">
            <mxRectangle width="219.9999999999999" height="30" as="alternateBounds" />
          </mxGeometry>
        </mxCell>
        <mxCell id="oL5exVUV7gf3ijn7sl5R-3" value="Member_Att_P" style="shape=table;startSize=30;container=1;collapsible=1;childLayout=tableLayout;fixedRows=1;rowLines=0;fontStyle=1;align=center;resizeLast=1;" parent="1" vertex="1">
          <mxGeometry x="170" y="610" width="250" height="90" as="geometry" />
        </mxCell>
        <mxCell id="oL5exVUV7gf3ijn7sl5R-4" value="" style="shape=partialRectangle;collapsible=0;dropTarget=0;pointerEvents=0;fillColor=none;points=[[0,0.5],[1,0.5]];portConstraint=eastwest;top=0;left=0;right=0;bottom=1;" parent="oL5exVUV7gf3ijn7sl5R-3" vertex="1">
          <mxGeometry y="30" width="250" height="30" as="geometry" />
        </mxCell>
        <mxCell id="oL5exVUV7gf3ijn7sl5R-5" value="PK" style="shape=partialRectangle;overflow=hidden;connectable=0;fillColor=none;top=0;left=0;bottom=0;right=0;fontStyle=1;" parent="oL5exVUV7gf3ijn7sl5R-4" vertex="1">
          <mxGeometry width="30.000000000000114" height="30" as="geometry">
            <mxRectangle width="30.000000000000114" height="30" as="alternateBounds" />
          </mxGeometry>
        </mxCell>
        <mxCell id="oL5exVUV7gf3ijn7sl5R-6" value="Member_Att_No int NOT NULL" style="shape=partialRectangle;overflow=hidden;connectable=0;fillColor=none;top=0;left=0;bottom=0;right=0;align=left;spacingLeft=6;fontStyle=5;spacing=2;" parent="oL5exVUV7gf3ijn7sl5R-4" vertex="1">
          <mxGeometry x="30.000000000000114" width="219.9999999999999" height="30" as="geometry">
            <mxRectangle width="219.9999999999999" height="30" as="alternateBounds" />
          </mxGeometry>
        </mxCell>
        <mxCell id="oL5exVUV7gf3ijn7sl5R-7" value="" style="shape=partialRectangle;collapsible=0;dropTarget=0;pointerEvents=0;fillColor=none;points=[[0,0.5],[1,0.5]];portConstraint=eastwest;top=0;left=0;right=0;bottom=0;" parent="oL5exVUV7gf3ijn7sl5R-3" vertex="1">
          <mxGeometry y="60" width="250" height="30" as="geometry" />
        </mxCell>
        <mxCell id="oL5exVUV7gf3ijn7sl5R-8" value="" style="shape=partialRectangle;overflow=hidden;connectable=0;fillColor=none;top=0;left=0;bottom=0;right=0;" parent="oL5exVUV7gf3ijn7sl5R-7" vertex="1">
          <mxGeometry width="30.000000000000114" height="30" as="geometry">
            <mxRectangle width="30.000000000000114" height="30" as="alternateBounds" />
          </mxGeometry>
        </mxCell>
        <mxCell id="oL5exVUV7gf3ijn7sl5R-9" value="Age int NOT NULL" style="shape=partialRectangle;overflow=hidden;connectable=0;fillColor=none;top=0;left=0;bottom=0;right=0;align=left;spacingLeft=6;" parent="oL5exVUV7gf3ijn7sl5R-7" vertex="1">
          <mxGeometry x="30.000000000000114" width="219.9999999999999" height="30" as="geometry">
            <mxRectangle width="219.9999999999999" height="30" as="alternateBounds" />
          </mxGeometry>
        </mxCell>
        <mxCell id="oL5exVUV7gf3ijn7sl5R-30" value="Order_Fact" style="shape=table;startSize=30;container=1;collapsible=1;childLayout=tableLayout;fixedRows=1;rowLines=0;fontStyle=1;align=center;resizeLast=1;" parent="1" vertex="1">
          <mxGeometry x="450" y="550" width="250" height="240" as="geometry" />
        </mxCell>
        <mxCell id="oL5exVUV7gf3ijn7sl5R-31" value="" style="shape=partialRectangle;collapsible=0;dropTarget=0;pointerEvents=0;fillColor=none;points=[[0,0.5],[1,0.5]];portConstraint=eastwest;top=0;left=0;right=0;bottom=1;" parent="oL5exVUV7gf3ijn7sl5R-30" vertex="1">
          <mxGeometry y="30" width="250" height="30" as="geometry" />
        </mxCell>
        <mxCell id="oL5exVUV7gf3ijn7sl5R-32" value="PK" style="shape=partialRectangle;overflow=hidden;connectable=0;fillColor=none;top=0;left=0;bottom=0;right=0;fontStyle=1;" parent="oL5exVUV7gf3ijn7sl5R-31" vertex="1">
          <mxGeometry width="30.000000000000114" height="30" as="geometry">
            <mxRectangle width="30.000000000000114" height="30" as="alternateBounds" />
          </mxGeometry>
        </mxCell>
        <mxCell id="oL5exVUV7gf3ijn7sl5R-33" value="Order_No int NOT NULL" style="shape=partialRectangle;overflow=hidden;connectable=0;fillColor=none;top=0;left=0;bottom=0;right=0;align=left;spacingLeft=6;fontStyle=5;spacing=2;" parent="oL5exVUV7gf3ijn7sl5R-31" vertex="1">
          <mxGeometry x="30.000000000000114" width="219.9999999999999" height="30" as="geometry">
            <mxRectangle width="219.9999999999999" height="30" as="alternateBounds" />
          </mxGeometry>
        </mxCell>
        <mxCell id="oL5exVUV7gf3ijn7sl5R-37" value="" style="shape=partialRectangle;collapsible=0;dropTarget=0;pointerEvents=0;fillColor=none;points=[[0,0.5],[1,0.5]];portConstraint=eastwest;top=0;left=0;right=0;bottom=0;" parent="oL5exVUV7gf3ijn7sl5R-30" vertex="1">
          <mxGeometry y="60" width="250" height="30" as="geometry" />
        </mxCell>
        <mxCell id="oL5exVUV7gf3ijn7sl5R-38" value="" style="shape=partialRectangle;overflow=hidden;connectable=0;fillColor=none;top=0;left=0;bottom=0;right=0;" parent="oL5exVUV7gf3ijn7sl5R-37" vertex="1">
          <mxGeometry width="30.000000000000114" height="30" as="geometry">
            <mxRectangle width="30.000000000000114" height="30" as="alternateBounds" />
          </mxGeometry>
        </mxCell>
        <mxCell id="oL5exVUV7gf3ijn7sl5R-39" value="Order_Qty int NOT NULL" style="shape=partialRectangle;overflow=hidden;connectable=0;fillColor=none;top=0;left=0;bottom=0;right=0;align=left;spacingLeft=6;" parent="oL5exVUV7gf3ijn7sl5R-37" vertex="1">
          <mxGeometry x="30.000000000000114" width="219.9999999999999" height="30" as="geometry">
            <mxRectangle width="219.9999999999999" height="30" as="alternateBounds" />
          </mxGeometry>
        </mxCell>
        <mxCell id="oL5exVUV7gf3ijn7sl5R-34" value="" style="shape=partialRectangle;collapsible=0;dropTarget=0;pointerEvents=0;fillColor=none;points=[[0,0.5],[1,0.5]];portConstraint=eastwest;top=0;left=0;right=0;bottom=0;" parent="oL5exVUV7gf3ijn7sl5R-30" vertex="1">
          <mxGeometry y="90" width="250" height="30" as="geometry" />
        </mxCell>
        <mxCell id="oL5exVUV7gf3ijn7sl5R-35" value="" style="shape=partialRectangle;overflow=hidden;connectable=0;fillColor=none;top=0;left=0;bottom=0;right=0;" parent="oL5exVUV7gf3ijn7sl5R-34" vertex="1">
          <mxGeometry width="30.000000000000114" height="30" as="geometry">
            <mxRectangle width="30.000000000000114" height="30" as="alternateBounds" />
          </mxGeometry>
        </mxCell>
        <mxCell id="oL5exVUV7gf3ijn7sl5R-36" value="Order_Amount int NOT NULL" style="shape=partialRectangle;overflow=hidden;connectable=0;fillColor=none;top=0;left=0;bottom=0;right=0;align=left;spacingLeft=6;" parent="oL5exVUV7gf3ijn7sl5R-34" vertex="1">
          <mxGeometry x="30.000000000000114" width="219.9999999999999" height="30" as="geometry">
            <mxRectangle width="219.9999999999999" height="30" as="alternateBounds" />
          </mxGeometry>
        </mxCell>
        <mxCell id="oL5exVUV7gf3ijn7sl5R-40" value="" style="endArrow=none;html=1;rounded=0;" parent="1" edge="1">
          <mxGeometry width="50" height="50" relative="1" as="geometry">
            <mxPoint x="480" y="790" as="sourcePoint" />
            <mxPoint x="480" y="670" as="targetPoint" />
          </mxGeometry>
        </mxCell>
        <mxCell id="oL5exVUV7gf3ijn7sl5R-41" value="Member_Att_No int NOT NULL" style="shape=partialRectangle;overflow=hidden;connectable=0;fillColor=none;top=0;left=0;bottom=0;right=0;align=left;spacingLeft=6;" parent="1" vertex="1">
          <mxGeometry x="480" y="730" width="220" height="30" as="geometry">
            <mxRectangle width="220" height="30" as="alternateBounds" />
          </mxGeometry>
        </mxCell>
        <mxCell id="oL5exVUV7gf3ijn7sl5R-44" value="Order_Ts timestamp NOT NULL" style="shape=partialRectangle;overflow=hidden;connectable=0;fillColor=none;top=0;left=0;bottom=0;right=0;align=left;spacingLeft=6;" parent="1" vertex="1">
          <mxGeometry x="480.0000000000001" y="670" width="219.9999999999999" height="30" as="geometry">
            <mxRectangle width="219.9999999999999" height="30" as="alternateBounds" />
          </mxGeometry>
        </mxCell>
        <mxCell id="oL5exVUV7gf3ijn7sl5R-45" value="Member_no int NOT NULL" style="shape=partialRectangle;overflow=hidden;connectable=0;fillColor=none;top=0;left=0;bottom=0;right=0;align=left;spacingLeft=6;" parent="1" vertex="1">
          <mxGeometry x="480.0000000000001" y="700" width="219.9999999999999" height="30" as="geometry">
            <mxRectangle width="219.9999999999999" height="30" as="alternateBounds" />
          </mxGeometry>
        </mxCell>
        <mxCell id="oL5exVUV7gf3ijn7sl5R-46" value="Load_Ts timestamp NOT NULL" style="shape=partialRectangle;overflow=hidden;connectable=0;fillColor=none;top=0;left=0;bottom=0;right=0;align=left;spacingLeft=6;" parent="1" vertex="1">
          <mxGeometry x="480" y="760" width="220" height="30" as="geometry">
            <mxRectangle width="220" height="30" as="alternateBounds" />
          </mxGeometry>
        </mxCell>
        <mxCell id="oL5exVUV7gf3ijn7sl5R-47" value="Member_Att_No varchar NOT NULL" style="shape=partialRectangle;overflow=hidden;connectable=0;fillColor=none;top=0;left=0;bottom=0;right=0;align=left;spacingLeft=6;" parent="1" vertex="1">
          <mxGeometry x="790.0000000000001" y="730" width="219.9999999999999" height="30" as="geometry">
            <mxRectangle width="219.9999999999999" height="30" as="alternateBounds" />
          </mxGeometry>
        </mxCell>
        <mxCell id="oL5exVUV7gf3ijn7sl5R-48" value="FK" style="shape=partialRectangle;overflow=hidden;connectable=0;fillColor=none;top=0;left=0;bottom=0;right=0;fontStyle=0;" parent="1" vertex="1">
          <mxGeometry x="760" y="730" width="30.000000000000114" height="30" as="geometry">
            <mxRectangle width="30.000000000000114" height="30" as="alternateBounds" />
          </mxGeometry>
        </mxCell>
        <mxCell id="oL5exVUV7gf3ijn7sl5R-49" value="Load_Ts timestamp NOT NULL" style="shape=partialRectangle;overflow=hidden;connectable=0;fillColor=none;top=0;left=0;bottom=0;right=0;align=left;spacingLeft=6;" parent="1" vertex="1">
          <mxGeometry x="480" y="300" width="220" height="30" as="geometry">
            <mxRectangle width="220" height="30" as="alternateBounds" />
          </mxGeometry>
        </mxCell>
        <mxCell id="oL5exVUV7gf3ijn7sl5R-50" value="Order_M" style="shape=table;startSize=30;container=1;collapsible=1;childLayout=tableLayout;fixedRows=1;rowLines=0;fontStyle=1;align=center;resizeLast=1;" parent="1" vertex="1">
          <mxGeometry x="175" y="120" width="250" height="220" as="geometry" />
        </mxCell>
        <mxCell id="oL5exVUV7gf3ijn7sl5R-51" value="" style="shape=partialRectangle;collapsible=0;dropTarget=0;pointerEvents=0;fillColor=none;points=[[0,0.5],[1,0.5]];portConstraint=eastwest;top=0;left=0;right=0;bottom=1;" parent="oL5exVUV7gf3ijn7sl5R-50" vertex="1">
          <mxGeometry y="30" width="250" height="30" as="geometry" />
        </mxCell>
        <mxCell id="oL5exVUV7gf3ijn7sl5R-52" value="PK" style="shape=partialRectangle;overflow=hidden;connectable=0;fillColor=none;top=0;left=0;bottom=0;right=0;fontStyle=1;" parent="oL5exVUV7gf3ijn7sl5R-51" vertex="1">
          <mxGeometry width="30.000000000000114" height="30" as="geometry">
            <mxRectangle width="30.000000000000114" height="30" as="alternateBounds" />
          </mxGeometry>
        </mxCell>
        <mxCell id="oL5exVUV7gf3ijn7sl5R-53" value="Order_No int NOT NULL" style="shape=partialRectangle;overflow=hidden;connectable=0;fillColor=none;top=0;left=0;bottom=0;right=0;align=left;spacingLeft=6;fontStyle=5;spacing=2;" parent="oL5exVUV7gf3ijn7sl5R-51" vertex="1">
          <mxGeometry x="30.000000000000114" width="219.9999999999999" height="30" as="geometry">
            <mxRectangle width="219.9999999999999" height="30" as="alternateBounds" />
          </mxGeometry>
        </mxCell>
        <mxCell id="oL5exVUV7gf3ijn7sl5R-54" value="" style="shape=partialRectangle;collapsible=0;dropTarget=0;pointerEvents=0;fillColor=none;points=[[0,0.5],[1,0.5]];portConstraint=eastwest;top=0;left=0;right=0;bottom=0;" parent="oL5exVUV7gf3ijn7sl5R-50" vertex="1">
          <mxGeometry y="60" width="250" height="30" as="geometry" />
        </mxCell>
        <mxCell id="oL5exVUV7gf3ijn7sl5R-55" value="" style="shape=partialRectangle;overflow=hidden;connectable=0;fillColor=none;top=0;left=0;bottom=0;right=0;" parent="oL5exVUV7gf3ijn7sl5R-54" vertex="1">
          <mxGeometry width="30.000000000000114" height="30" as="geometry">
            <mxRectangle width="30.000000000000114" height="30" as="alternateBounds" />
          </mxGeometry>
        </mxCell>
        <mxCell id="oL5exVUV7gf3ijn7sl5R-56" value="Order_Qty int NOT NULL" style="shape=partialRectangle;overflow=hidden;connectable=0;fillColor=none;top=0;left=0;bottom=0;right=0;align=left;spacingLeft=6;" parent="oL5exVUV7gf3ijn7sl5R-54" vertex="1">
          <mxGeometry x="30.000000000000114" width="219.9999999999999" height="30" as="geometry">
            <mxRectangle width="219.9999999999999" height="30" as="alternateBounds" />
          </mxGeometry>
        </mxCell>
        <mxCell id="oL5exVUV7gf3ijn7sl5R-57" value="" style="shape=partialRectangle;collapsible=0;dropTarget=0;pointerEvents=0;fillColor=none;points=[[0,0.5],[1,0.5]];portConstraint=eastwest;top=0;left=0;right=0;bottom=0;" parent="oL5exVUV7gf3ijn7sl5R-50" vertex="1">
          <mxGeometry y="90" width="250" height="30" as="geometry" />
        </mxCell>
        <mxCell id="oL5exVUV7gf3ijn7sl5R-58" value="" style="shape=partialRectangle;overflow=hidden;connectable=0;fillColor=none;top=0;left=0;bottom=0;right=0;" parent="oL5exVUV7gf3ijn7sl5R-57" vertex="1">
          <mxGeometry width="30.000000000000114" height="30" as="geometry">
            <mxRectangle width="30.000000000000114" height="30" as="alternateBounds" />
          </mxGeometry>
        </mxCell>
        <mxCell id="oL5exVUV7gf3ijn7sl5R-59" value="Order_Amount int NOT NULL" style="shape=partialRectangle;overflow=hidden;connectable=0;fillColor=none;top=0;left=0;bottom=0;right=0;align=left;spacingLeft=6;" parent="oL5exVUV7gf3ijn7sl5R-57" vertex="1">
          <mxGeometry x="30.000000000000114" width="219.9999999999999" height="30" as="geometry">
            <mxRectangle width="219.9999999999999" height="30" as="alternateBounds" />
          </mxGeometry>
        </mxCell>
        <mxCell id="oL5exVUV7gf3ijn7sl5R-60" value="" style="endArrow=none;html=1;rounded=0;" parent="1" edge="1">
          <mxGeometry width="50" height="50" relative="1" as="geometry">
            <mxPoint x="205" y="340" as="sourcePoint" />
            <mxPoint x="205" y="240" as="targetPoint" />
          </mxGeometry>
        </mxCell>
        <mxCell id="oL5exVUV7gf3ijn7sl5R-62" value="Order_Ts timestamp NOT NULL" style="shape=partialRectangle;overflow=hidden;connectable=0;fillColor=none;top=0;left=0;bottom=0;right=0;align=left;spacingLeft=6;" parent="1" vertex="1">
          <mxGeometry x="205.0000000000001" y="240" width="219.9999999999999" height="30" as="geometry">
            <mxRectangle width="219.9999999999999" height="30" as="alternateBounds" />
          </mxGeometry>
        </mxCell>
        <mxCell id="oL5exVUV7gf3ijn7sl5R-63" value="Member_no int NOT NULL" style="shape=partialRectangle;overflow=hidden;connectable=0;fillColor=none;top=0;left=0;bottom=0;right=0;align=left;spacingLeft=6;" parent="1" vertex="1">
          <mxGeometry x="205.0000000000001" y="270" width="219.9999999999999" height="30" as="geometry">
            <mxRectangle width="219.9999999999999" height="30" as="alternateBounds" />
          </mxGeometry>
        </mxCell>
        <mxCell id="oL5exVUV7gf3ijn7sl5R-64" value="Load_Ts timestamp NOT NULL" style="shape=partialRectangle;overflow=hidden;connectable=0;fillColor=none;top=0;left=0;bottom=0;right=0;align=left;spacingLeft=6;" parent="1" vertex="1">
          <mxGeometry x="205" y="300" width="220" height="30" as="geometry">
            <mxRectangle width="220" height="30" as="alternateBounds" />
          </mxGeometry>
        </mxCell>
        <mxCell id="oL5exVUV7gf3ijn7sl5R-65" value="FK" style="shape=partialRectangle;overflow=hidden;connectable=0;fillColor=none;top=0;left=0;bottom=0;right=0;fontStyle=0;" parent="1" vertex="1">
          <mxGeometry x="175" y="270" width="30.000000000000114" height="30" as="geometry">
            <mxRectangle width="30.000000000000114" height="30" as="alternateBounds" />
          </mxGeometry>
        </mxCell>
        <mxCell id="oL5exVUV7gf3ijn7sl5R-66" value="FK" style="shape=partialRectangle;overflow=hidden;connectable=0;fillColor=none;top=0;left=0;bottom=0;right=0;fontStyle=0;" parent="1" vertex="1">
          <mxGeometry x="450" y="700" width="30.000000000000114" height="30" as="geometry">
            <mxRectangle width="30.000000000000114" height="30" as="alternateBounds" />
          </mxGeometry>
        </mxCell>
        <mxCell id="oL5exVUV7gf3ijn7sl5R-67" value="FK" style="shape=partialRectangle;overflow=hidden;connectable=0;fillColor=none;top=0;left=0;bottom=0;right=0;fontStyle=0;" parent="1" vertex="1">
          <mxGeometry x="450" y="730" width="30.000000000000114" height="30" as="geometry">
            <mxRectangle width="30.000000000000114" height="30" as="alternateBounds" />
          </mxGeometry>
        </mxCell>
        <mxCell id="8PdvgUfNCieYga221iiQ-3" value="" style="edgeStyle=orthogonalEdgeStyle;rounded=0;orthogonalLoop=1;jettySize=auto;html=1;" edge="1" parent="1" source="oL5exVUV7gf3ijn7sl5R-4" target="oL5exVUV7gf3ijn7sl5R-34">
          <mxGeometry relative="1" as="geometry" />
        </mxCell>
      </root>
    </mxGraphModel>
  </diagram>
</mxfile>
